# xmcd
# 
# Track frame offsets:
#     150
#     15082
#     36487
#     55204
#     71406
#     92791
#     123204
#     139624
#     159863
#     184616
#     201006
#     210059
#     223107
#     243138
#     258849
# 
# Disc length: 4628
# 
# Revision: 2
# Processed by: cddbd v1.5.2PL0 Copyright (c) Steve Scherf et al.
# Submitted via: fre:ac v1.0.31
# 
DISCID=bc12120f
DTITLE=Pentangle - Basket Of Light
DYEAR=2017
DGENRE=Folk
TTITLE0=Light Flight (Theme From 'Take Three Girls')
TTITLE1=Once I Had A Sweetheart
TTITLE2=Springtime Promises
TTITLE3=Lyke-Wake Dirge
TTITLE4=Train Song
TTITLE5=Hunting Song
TTITLE6=Sally Go Round The Roses
TTITLE7=The Cuckoo
TTITLE8=House Carpenter
TTITLE9=Sally Go Round The Roses [Alternate Version]
TTITLE10=Cold Mountain [B-Side]
TTITLE11=I Saw An Angel [B-Side]
TTITLE12=House Carpenter [Live In Aberdeen 26/3/70]
TTITLE13=Light Flight [Live In Aberdeen 26/3/70]
TTITLE14=Pentangling [Live In Aberdeen 26/3/70]
EXTD=
EXTT0=
EXTT1=
EXTT2=
EXTT3=
EXTT4=
EXTT5=
EXTT6=
EXTT7=
EXTT8=
EXTT9=
EXTT10=
EXTT11=
EXTT12=
EXTT13=
EXTT14=
PLAYORDER=
